# xmcd
#
# Track frame offsets: 
#        150
#        20008
#        37152
#        58909
#        75333
#        96812
#        117269
#        129534
#        144035
#        164985
#
# Disc length: 2394 seconds
#
# Revision: 0
# Processed by: cddbd v1.5.2PL0 Copyright (c) Steve Scherf et al.
# Submitted via: ExactAudioCopy v0.99pb5
#
DISCID=8809580a
DTITLE=Bryan Sutton and Friends - Almost Live
DYEAR=2009
DGENRE=Bluegrass
TTITLE0=Morning Top
TTITLE1=Big Island Hornpipe
TTITLE2=Rye Straw Suite
TTITLE3=Church Street Blues
TTITLE4=Le Pont de la Moustache
TTITLE5=Dark Island
TTITLE6=Wonder Valley Gals
TTITLE7=Kitchen Girl
TTITLE8=Loretta's Waltz
TTITLE9=Gonna Lay Down My Old Guitar
EXTD=
EXTT0=
EXTT1=
EXTT2=
EXTT3=
EXTT4=
EXTT5=
EXTT6=
EXTT7=
EXTT8=
EXTT9=
PLAYORDER=
